<svg width="61" height="60" viewBox="0 0 61 60" fill="none" xmlns="http://www.w3.org/2000/svg">
<path d="M0 30C0 13.4315 13.4374 0 30.0059 0C46.5745 0 60.0119 13.4315 60.0119 30C60.0119 46.5685 46.5745 60 30.0059 60C13.4374 60 0 46.5685 0 30Z" fill="#FF3C6E"/>
<path fill-rule="evenodd" clip-rule="evenodd" d="M35.5851 24.8493C35.5851 21.8376 33.1171 19.2497 30.1738 19.2C28.7611 19.1848 27.4024 19.7437 26.4079 20.7491C25.3243 21.812 24.7094 23.2645 24.6999 24.7839C24.7145 25.773 24.9184 26.7501 25.3006 27.6622C26.4418 30.5405 28.8184 32.8797 28.9568 33.0027C29.2572 33.3036 29.6306 33.6124 30.1164 33.5993C30.5607 33.5511 30.9658 33.3221 31.2368 32.9661L31.246 32.9573C31.5175 32.6996 35.5748 28.8482 35.5851 24.8493ZM34.731 34.8422C34.5002 35.2239 34.4362 35.6843 34.554 36.1149C34.7206 36.5749 35.1447 36.8075 35.535 36.9773L35.5362 36.9779C35.7086 37.0545 38.7326 38.3991 41.8084 38.3991C42.7915 38.4167 43.769 38.2464 44.6888 37.8973C46.0893 37.3277 47.2057 36.2206 47.7904 34.8213C48.3514 33.5248 48.3683 32.056 47.8372 30.7469C46.708 28.0315 43.4138 26.6778 40.6245 27.7963C36.8906 29.2964 34.8168 34.6174 34.731 34.8422ZM12.3902 30.7469C13.5243 28.0315 16.8405 26.6778 19.6314 27.7963C23.3601 29.2869 25.4375 34.5498 25.551 34.8373L25.5529 34.8422C25.7854 35.2238 25.8488 35.6848 25.728 36.1149C25.5608 36.5749 25.1374 36.8075 24.7455 36.9774C24.7431 36.9784 24.7402 36.9797 24.7367 36.9812C24.4956 37.0866 21.4944 38.3991 18.445 38.3991C17.4568 38.4165 16.4743 38.2462 15.5495 37.8973C14.1437 37.3277 13.0233 36.2204 12.4372 34.8213C11.8711 33.5254 11.8541 32.0555 12.3902 30.7469Z" fill="white"/>
</svg>
